%TF.GenerationSoftware,KiCad,Pcbnew,(5.1.8)-1*%
%TF.CreationDate,2020-12-25T14:24:52+01:00*%
%TF.ProjectId,5S14,35533134-2e6b-4696-9361-645f70636258,rev?*%
%TF.SameCoordinates,Original*%
%TF.FileFunction,Copper,L2,Bot*%
%TF.FilePolarity,Positive*%
%FSLAX46Y46*%
G04 Gerber Fmt 4.6, Leading zero omitted, Abs format (unit mm)*
G04 Created by KiCad (PCBNEW (5.1.8)-1) date 2020-12-25 14:24:52*
%MOMM*%
%LPD*%
G01*
G04 APERTURE LIST*
%TA.AperFunction,ComponentPad*%
%ADD10O,1.600000X1.600000*%
%TD*%
%TA.AperFunction,ComponentPad*%
%ADD11C,1.600000*%
%TD*%
%TA.AperFunction,ComponentPad*%
%ADD12R,1.300000X1.300000*%
%TD*%
%TA.AperFunction,ComponentPad*%
%ADD13C,1.300000*%
%TD*%
%TA.AperFunction,ComponentPad*%
%ADD14R,1.600000X1.600000*%
%TD*%
%TA.AperFunction,ComponentPad*%
%ADD15O,1.700000X1.700000*%
%TD*%
%TA.AperFunction,ComponentPad*%
%ADD16R,1.700000X1.700000*%
%TD*%
%TA.AperFunction,Conductor*%
%ADD17C,0.500000*%
%TD*%
G04 APERTURE END LIST*
D10*
%TO.P,R859,2*%
%TO.N,P5-6*%
X140970000Y-66675000D03*
D11*
%TO.P,R859,1*%
%TO.N,P6-2*%
X140970000Y-81915000D03*
%TD*%
D10*
%TO.P,R882,2*%
%TO.N,P10-1*%
X200660000Y-90170000D03*
D11*
%TO.P,R882,1*%
%TO.N,P10-4*%
X200660000Y-77470000D03*
%TD*%
D10*
%TO.P,R822,2*%
%TO.N,P2-2*%
X91440000Y-83185000D03*
D11*
%TO.P,R822,1*%
%TO.N,P5-4*%
X91440000Y-67945000D03*
%TD*%
D12*
%TO.P,Q6,1*%
%TO.N,Net-(Q4-Pad1)*%
X148590000Y-92075000D03*
D13*
%TO.P,Q6,3*%
%TO.N,P5-7*%
X146050000Y-92075000D03*
%TO.P,Q6,2*%
%TO.N,Net-(Q6-Pad2)*%
X147320000Y-93345000D03*
%TD*%
D12*
%TO.P,Q5,1*%
%TO.N,Net-(Q3-Pad1)*%
X148590000Y-99695000D03*
D13*
%TO.P,Q5,3*%
%TO.N,P5-7*%
X146050000Y-99695000D03*
%TO.P,Q5,2*%
%TO.N,Net-(Q5-Pad2)*%
X147320000Y-100965000D03*
%TD*%
D12*
%TO.P,Q4,1*%
%TO.N,Net-(Q4-Pad1)*%
X153035000Y-76835000D03*
D13*
%TO.P,Q4,3*%
%TO.N,P1-1*%
X153035000Y-74295000D03*
%TO.P,Q4,2*%
%TO.N,P6-3*%
X151765000Y-75565000D03*
%TD*%
D12*
%TO.P,Q3,1*%
%TO.N,Net-(Q3-Pad1)*%
X153035000Y-70485000D03*
D13*
%TO.P,Q3,3*%
%TO.N,P2-6*%
X153035000Y-67945000D03*
%TO.P,Q3,2*%
%TO.N,P6-1*%
X151765000Y-69215000D03*
%TD*%
D12*
%TO.P,Q2,1*%
%TO.N,Net-(Q2-Pad1)*%
X121285000Y-97155000D03*
D13*
%TO.P,Q2,3*%
%TO.N,P1-1*%
X118745000Y-97155000D03*
%TO.P,Q2,2*%
%TO.N,P4-2*%
X120015000Y-98425000D03*
%TD*%
D12*
%TO.P,Q1,1*%
%TO.N,Net-(Q1-Pad1)*%
X121285000Y-90805000D03*
D13*
%TO.P,Q1,3*%
%TO.N,P2-6*%
X118745000Y-90805000D03*
%TO.P,Q1,2*%
%TO.N,P4-1*%
X120015000Y-92075000D03*
%TD*%
D10*
%TO.P,R898,2*%
%TO.N,P11-8*%
X235585000Y-80645000D03*
D11*
%TO.P,R898,1*%
%TO.N,P10-5*%
X235585000Y-67945000D03*
%TD*%
D10*
%TO.P,R897,2*%
%TO.N,P11-7*%
X233045000Y-83185000D03*
D11*
%TO.P,R897,1*%
%TO.N,P10-6*%
X233045000Y-70485000D03*
%TD*%
D10*
%TO.P,R896,2*%
%TO.N,P11-6*%
X230505000Y-80645000D03*
D11*
%TO.P,R896,1*%
%TO.N,P10-7*%
X230505000Y-67945000D03*
%TD*%
D10*
%TO.P,R895,2*%
%TO.N,P11-5*%
X227965000Y-83185000D03*
D11*
%TO.P,R895,1*%
%TO.N,P10-7*%
X227965000Y-70485000D03*
%TD*%
D10*
%TO.P,R894,2*%
%TO.N,P11-4*%
X225425000Y-80645000D03*
D11*
%TO.P,R894,1*%
%TO.N,P10-6*%
X225425000Y-67945000D03*
%TD*%
D10*
%TO.P,R893,2*%
%TO.N,P11-3*%
X222885000Y-83185000D03*
D11*
%TO.P,R893,1*%
%TO.N,P10-6*%
X222885000Y-67945000D03*
%TD*%
D10*
%TO.P,R892,2*%
%TO.N,P11-2*%
X220345000Y-80645000D03*
D11*
%TO.P,R892,1*%
%TO.N,P10-3*%
X220345000Y-67945000D03*
%TD*%
D10*
%TO.P,R891,2*%
%TO.N,P11-1*%
X217805000Y-83185000D03*
D11*
%TO.P,R891,1*%
%TO.N,P10-3*%
X217805000Y-70485000D03*
%TD*%
D10*
%TO.P,R886,2*%
%TO.N,P10-2*%
X213360000Y-73660000D03*
D11*
%TO.P,R886,1*%
%TO.N,P10-8*%
X213360000Y-88900000D03*
%TD*%
D10*
%TO.P,R885,2*%
%TO.N,P8-2*%
X210820000Y-78740000D03*
D11*
%TO.P,R885,1*%
%TO.N,P10-8*%
X210820000Y-91440000D03*
%TD*%
D10*
%TO.P,R884,2*%
%TO.N,P10-7*%
X208280000Y-88265000D03*
D11*
%TO.P,R884,1*%
%TO.N,P10-2*%
X208280000Y-73025000D03*
%TD*%
D10*
%TO.P,R883,2*%
%TO.N,P10-5*%
X203200000Y-86995000D03*
D11*
%TO.P,R883,1*%
%TO.N,P10-2*%
X203200000Y-74295000D03*
%TD*%
D10*
%TO.P,R881,2*%
%TO.N,P10-3*%
X196850000Y-86995000D03*
D11*
%TO.P,R881,1*%
%TO.N,P10-2*%
X196850000Y-74295000D03*
%TD*%
D10*
%TO.P,R880,2*%
%TO.N,P10-2*%
X193040000Y-88265000D03*
D11*
%TO.P,R880,1*%
%TO.N,P10-4*%
X193040000Y-73025000D03*
%TD*%
D10*
%TO.P,R879,2*%
%TO.N,P9-2*%
X187960000Y-73025000D03*
D11*
%TO.P,R879,1*%
%TO.N,P10-4*%
X187960000Y-85725000D03*
%TD*%
D10*
%TO.P,R878,2*%
%TO.N,P9-1*%
X185420000Y-70485000D03*
D11*
%TO.P,R878,1*%
%TO.N,P10-4*%
X185420000Y-83185000D03*
%TD*%
D10*
%TO.P,R877,2*%
%TO.N,P10-7*%
X190500000Y-91440000D03*
D11*
%TO.P,R877,1*%
%TO.N,P8-2*%
X190500000Y-78740000D03*
%TD*%
D10*
%TO.P,R876,2*%
%TO.N,P7-6*%
X172720000Y-81915000D03*
D11*
%TO.P,R876,1*%
%TO.N,P10-7*%
X172720000Y-69215000D03*
%TD*%
D10*
%TO.P,R875,2*%
%TO.N,P7-5*%
X170180000Y-83185000D03*
D11*
%TO.P,R875,1*%
%TO.N,P10-6*%
X170180000Y-70485000D03*
%TD*%
D10*
%TO.P,R874,2*%
%TO.N,P7-4*%
X167640000Y-81915000D03*
D11*
%TO.P,R874,1*%
%TO.N,P10-6*%
X167640000Y-66675000D03*
%TD*%
D10*
%TO.P,R873,2*%
%TO.N,P7-3*%
X165100000Y-83185000D03*
D11*
%TO.P,R873,1*%
%TO.N,P10-3*%
X165100000Y-70485000D03*
%TD*%
D10*
%TO.P,R872,2*%
%TO.N,P7-2*%
X162560000Y-81915000D03*
D11*
%TO.P,R872,1*%
%TO.N,P10-3*%
X162560000Y-69215000D03*
%TD*%
D10*
%TO.P,R871,2*%
%TO.N,P7-1*%
X160020000Y-83185000D03*
D11*
%TO.P,R871,1*%
%TO.N,P10-6*%
X160020000Y-70485000D03*
%TD*%
D10*
%TO.P,R864,2*%
%TO.N,Net-(Q3-Pad1)*%
X156210000Y-85725000D03*
D11*
%TO.P,R864,1*%
%TO.N,P10-9*%
X156210000Y-98425000D03*
%TD*%
D10*
%TO.P,R863,2*%
%TO.N,P10-9*%
X153670000Y-101600000D03*
D11*
%TO.P,R863,1*%
%TO.N,Net-(Q4-Pad1)*%
X153670000Y-88900000D03*
%TD*%
D10*
%TO.P,R862,2*%
%TO.N,P2-6*%
X148590000Y-81915000D03*
D11*
%TO.P,R862,1*%
%TO.N,P5-6*%
X148590000Y-69215000D03*
%TD*%
D10*
%TO.P,R861,2*%
%TO.N,P5-6*%
X146050000Y-66675000D03*
D11*
%TO.P,R861,1*%
%TO.N,P6-4*%
X146050000Y-81915000D03*
%TD*%
D10*
%TO.P,R860,2*%
%TO.N,P1-1*%
X143510000Y-81915000D03*
D11*
%TO.P,R860,1*%
%TO.N,P5-6*%
X143510000Y-69215000D03*
%TD*%
D10*
%TO.P,R858,2*%
%TO.N,P2-6*%
X137160000Y-70485000D03*
D11*
%TO.P,R858,1*%
%TO.N,P5-5*%
X137160000Y-83185000D03*
%TD*%
D10*
%TO.P,R857,2*%
%TO.N,P3-1*%
X138430000Y-101600000D03*
D11*
%TO.P,R857,1*%
%TO.N,Net-(Q5-Pad2)*%
X138430000Y-88900000D03*
%TD*%
D10*
%TO.P,R856,2*%
%TO.N,P5-5*%
X134620000Y-83185000D03*
D11*
%TO.P,R856,1*%
%TO.N,P6-2*%
X134620000Y-67945000D03*
%TD*%
D10*
%TO.P,R855,2*%
%TO.N,P3-2*%
X134620000Y-102235000D03*
D11*
%TO.P,R855,1*%
%TO.N,Net-(Q6-Pad2)*%
X134620000Y-89535000D03*
%TD*%
D10*
%TO.P,R854,2*%
%TO.N,P1-1*%
X132080000Y-70485000D03*
D11*
%TO.P,R854,1*%
%TO.N,P5-5*%
X132080000Y-83185000D03*
%TD*%
D10*
%TO.P,R853,2*%
%TO.N,P5-5*%
X129540000Y-83185000D03*
D11*
%TO.P,R853,1*%
%TO.N,P6-4*%
X129540000Y-67945000D03*
%TD*%
D10*
%TO.P,R852,2*%
%TO.N,P10-9*%
X129540000Y-89535000D03*
D11*
%TO.P,R852,1*%
%TO.N,P3-2*%
X129540000Y-102235000D03*
%TD*%
D10*
%TO.P,R851,2*%
%TO.N,P5-4*%
X125730000Y-83185000D03*
D11*
%TO.P,R851,1*%
%TO.N,P1-1*%
X125730000Y-70485000D03*
%TD*%
D10*
%TO.P,R850,2*%
%TO.N,P10-9*%
X125730000Y-89535000D03*
D11*
%TO.P,R850,1*%
%TO.N,P3-1*%
X125730000Y-102235000D03*
%TD*%
D10*
%TO.P,R849,2*%
%TO.N,P5-4*%
X123190000Y-80645000D03*
D11*
%TO.P,R849,1*%
%TO.N,P2-6*%
X123190000Y-67945000D03*
%TD*%
D10*
%TO.P,R848,2*%
%TO.N,P5-3*%
X120650000Y-83185000D03*
D11*
%TO.P,R848,1*%
%TO.N,P6-4*%
X120650000Y-70485000D03*
%TD*%
D10*
%TO.P,R847,2*%
%TO.N,P5-3*%
X118110000Y-80645000D03*
D11*
%TO.P,R847,1*%
%TO.N,P6-2*%
X118110000Y-67945000D03*
%TD*%
D10*
%TO.P,R846,2*%
%TO.N,P5-2*%
X115570000Y-83185000D03*
D11*
%TO.P,R846,1*%
%TO.N,P6-4*%
X115570000Y-70485000D03*
%TD*%
D10*
%TO.P,R845,2*%
%TO.N,P5-2*%
X113030000Y-80645000D03*
D11*
%TO.P,R845,1*%
%TO.N,P6-2*%
X113030000Y-67945000D03*
%TD*%
D10*
%TO.P,R844,2*%
%TO.N,P5-1*%
X110490000Y-83185000D03*
D11*
%TO.P,R844,1*%
%TO.N,P6-4*%
X110490000Y-70485000D03*
%TD*%
D10*
%TO.P,R843,2*%
%TO.N,P5-1*%
X106680000Y-80645000D03*
D11*
%TO.P,R843,1*%
%TO.N,P6-2*%
X106680000Y-67945000D03*
%TD*%
D10*
%TO.P,R842,2*%
%TO.N,Net-(Q2-Pad1)*%
X114300000Y-100965000D03*
D11*
%TO.P,R842,1*%
%TO.N,P5-1*%
X114300000Y-85725000D03*
%TD*%
D10*
%TO.P,R841,2*%
%TO.N,Net-(Q1-Pad1)*%
X110490000Y-100965000D03*
D11*
%TO.P,R841,1*%
%TO.N,P5-1*%
X110490000Y-85725000D03*
%TD*%
D10*
%TO.P,R825,2*%
%TO.N,P2-5*%
X100330000Y-80645000D03*
D11*
%TO.P,R825,1*%
%TO.N,P5-1*%
X100330000Y-67945000D03*
%TD*%
D10*
%TO.P,R824,2*%
%TO.N,P2-4*%
X97790000Y-83185000D03*
D11*
%TO.P,R824,1*%
%TO.N,P5-1*%
X97790000Y-70485000D03*
%TD*%
D10*
%TO.P,R823,2*%
%TO.N,P2-3*%
X95250000Y-80645000D03*
D11*
%TO.P,R823,1*%
%TO.N,P5-4*%
X95250000Y-67945000D03*
%TD*%
D10*
%TO.P,R821,2*%
%TO.N,P2-1*%
X87630000Y-88265000D03*
D11*
%TO.P,R821,1*%
%TO.N,P5-3*%
X87630000Y-75565000D03*
%TD*%
D10*
%TO.P,R817,2*%
%TO.N,P1-7*%
X83820000Y-88265000D03*
D11*
%TO.P,R817,1*%
%TO.N,P5-2*%
X83820000Y-75565000D03*
%TD*%
D10*
%TO.P,R816,2*%
%TO.N,P1-6*%
X80010000Y-80645000D03*
D11*
%TO.P,R816,1*%
%TO.N,P5-3*%
X80010000Y-67945000D03*
%TD*%
D10*
%TO.P,R815,2*%
%TO.N,P1-5*%
X76200000Y-67945000D03*
D11*
%TO.P,R815,1*%
%TO.N,P5-4*%
X76200000Y-83185000D03*
%TD*%
D10*
%TO.P,R814,2*%
%TO.N,P1-4*%
X73660000Y-83185000D03*
D11*
%TO.P,R814,1*%
%TO.N,P5-4*%
X73660000Y-70485000D03*
%TD*%
D10*
%TO.P,R813,2*%
%TO.N,P1-3*%
X71120000Y-80645000D03*
D11*
%TO.P,R813,1*%
%TO.N,P5-1*%
X71120000Y-67945000D03*
%TD*%
D10*
%TO.P,R812,2*%
%TO.N,P1-2*%
X68580000Y-83185000D03*
D11*
%TO.P,R812,1*%
%TO.N,P5-1*%
X68580000Y-70485000D03*
%TD*%
D10*
%TO.P,D898,2*%
%TO.N,P10-9*%
X235585000Y-98425000D03*
D14*
%TO.P,D898,1*%
%TO.N,P11-8*%
X235585000Y-88265000D03*
%TD*%
D10*
%TO.P,D897,2*%
%TO.N,P10-9*%
X233045000Y-100330000D03*
D14*
%TO.P,D897,1*%
%TO.N,P11-7*%
X233045000Y-90170000D03*
%TD*%
D10*
%TO.P,D896,2*%
%TO.N,P10-9*%
X230505000Y-98425000D03*
D14*
%TO.P,D896,1*%
%TO.N,P11-6*%
X230505000Y-88265000D03*
%TD*%
D10*
%TO.P,D895,2*%
%TO.N,P10-9*%
X227965000Y-100330000D03*
D14*
%TO.P,D895,1*%
%TO.N,P11-5*%
X227965000Y-90170000D03*
%TD*%
D10*
%TO.P,D894,2*%
%TO.N,P10-9*%
X225425000Y-98425000D03*
D14*
%TO.P,D894,1*%
%TO.N,P11-4*%
X225425000Y-88265000D03*
%TD*%
D10*
%TO.P,D893,2*%
%TO.N,P10-9*%
X222885000Y-100330000D03*
D14*
%TO.P,D893,1*%
%TO.N,P11-3*%
X222885000Y-90170000D03*
%TD*%
D10*
%TO.P,D892,2*%
%TO.N,P10-9*%
X220345000Y-98425000D03*
D14*
%TO.P,D892,1*%
%TO.N,P11-2*%
X220345000Y-88265000D03*
%TD*%
D10*
%TO.P,D891,2*%
%TO.N,P10-9*%
X217805000Y-100330000D03*
D14*
%TO.P,D891,1*%
%TO.N,P11-1*%
X217805000Y-90170000D03*
%TD*%
D10*
%TO.P,D879,2*%
%TO.N,P10-9*%
X179705000Y-83185000D03*
D14*
%TO.P,D879,1*%
%TO.N,P9-2*%
X179705000Y-73025000D03*
%TD*%
D10*
%TO.P,D878,2*%
%TO.N,P10-9*%
X177165000Y-81915000D03*
D14*
%TO.P,D878,1*%
%TO.N,P9-1*%
X177165000Y-71755000D03*
%TD*%
D10*
%TO.P,D877,2*%
%TO.N,P10-9*%
X175260000Y-100330000D03*
D14*
%TO.P,D877,1*%
%TO.N,P8-2*%
X175260000Y-90170000D03*
%TD*%
D10*
%TO.P,D876,2*%
%TO.N,P10-9*%
X172720000Y-98425000D03*
D14*
%TO.P,D876,1*%
%TO.N,P7-6*%
X172720000Y-88265000D03*
%TD*%
D10*
%TO.P,D875,2*%
%TO.N,P10-9*%
X170180000Y-100330000D03*
D14*
%TO.P,D875,1*%
%TO.N,P7-5*%
X170180000Y-90170000D03*
%TD*%
D10*
%TO.P,D874,2*%
%TO.N,P10-9*%
X167640000Y-98425000D03*
D14*
%TO.P,D874,1*%
%TO.N,P7-4*%
X167640000Y-88265000D03*
%TD*%
D10*
%TO.P,D873,2*%
%TO.N,P10-9*%
X165100000Y-100330000D03*
D14*
%TO.P,D873,1*%
%TO.N,P7-3*%
X165100000Y-90170000D03*
%TD*%
D10*
%TO.P,D872,2*%
%TO.N,P10-9*%
X162560000Y-98425000D03*
D14*
%TO.P,D872,1*%
%TO.N,P7-2*%
X162560000Y-88265000D03*
%TD*%
D10*
%TO.P,D871,2*%
%TO.N,P10-9*%
X160020000Y-100330000D03*
D14*
%TO.P,D871,1*%
%TO.N,P7-1*%
X160020000Y-90170000D03*
%TD*%
D10*
%TO.P,D826,2*%
%TO.N,P10-9*%
X102870000Y-100330000D03*
D14*
%TO.P,D826,1*%
%TO.N,P2-6*%
X102870000Y-90170000D03*
%TD*%
D10*
%TO.P,D825,2*%
%TO.N,P10-9*%
X100330000Y-98425000D03*
D14*
%TO.P,D825,1*%
%TO.N,P2-5*%
X100330000Y-88265000D03*
%TD*%
D10*
%TO.P,D824,2*%
%TO.N,P10-9*%
X97790000Y-100330000D03*
D14*
%TO.P,D824,1*%
%TO.N,P2-4*%
X97790000Y-90170000D03*
%TD*%
D10*
%TO.P,D823,2*%
%TO.N,P10-9*%
X95250000Y-98425000D03*
D14*
%TO.P,D823,1*%
%TO.N,P2-3*%
X95250000Y-88265000D03*
%TD*%
D10*
%TO.P,D822,2*%
%TO.N,P10-9*%
X92710000Y-100330000D03*
D14*
%TO.P,D822,1*%
%TO.N,P2-2*%
X92710000Y-90170000D03*
%TD*%
D10*
%TO.P,D821,2*%
%TO.N,P10-9*%
X90170000Y-98425000D03*
D14*
%TO.P,D821,1*%
%TO.N,P2-1*%
X90170000Y-88265000D03*
%TD*%
D10*
%TO.P,D817,2*%
%TO.N,P10-9*%
X81280000Y-98425000D03*
D14*
%TO.P,D817,1*%
%TO.N,P1-7*%
X81280000Y-88265000D03*
%TD*%
D10*
%TO.P,D816,2*%
%TO.N,P10-9*%
X78740000Y-100330000D03*
D14*
%TO.P,D816,1*%
%TO.N,P1-6*%
X78740000Y-90170000D03*
%TD*%
D10*
%TO.P,D815,2*%
%TO.N,P10-9*%
X76200000Y-98425000D03*
D14*
%TO.P,D815,1*%
%TO.N,P1-5*%
X76200000Y-88265000D03*
%TD*%
D10*
%TO.P,D814,2*%
%TO.N,P10-9*%
X73660000Y-100330000D03*
D14*
%TO.P,D814,1*%
%TO.N,P1-4*%
X73660000Y-90170000D03*
%TD*%
D10*
%TO.P,D813,2*%
%TO.N,P10-9*%
X71120000Y-98425000D03*
D14*
%TO.P,D813,1*%
%TO.N,P1-3*%
X71120000Y-88265000D03*
%TD*%
D10*
%TO.P,D812,2*%
%TO.N,P10-9*%
X68580000Y-100330000D03*
D14*
%TO.P,D812,1*%
%TO.N,P1-2*%
X68580000Y-90170000D03*
%TD*%
D10*
%TO.P,D811,2*%
%TO.N,P10-9*%
X66040000Y-98425000D03*
D14*
%TO.P,D811,1*%
%TO.N,P1-1*%
X66040000Y-88265000D03*
%TD*%
D15*
%TO.P,J11,8*%
%TO.N,P11-8*%
X235585000Y-85725000D03*
%TO.P,J11,7*%
%TO.N,P11-7*%
X233045000Y-85725000D03*
%TO.P,J11,6*%
%TO.N,P11-6*%
X230505000Y-85725000D03*
%TO.P,J11,5*%
%TO.N,P11-5*%
X227965000Y-85725000D03*
%TO.P,J11,4*%
%TO.N,P11-4*%
X225425000Y-85725000D03*
%TO.P,J11,3*%
%TO.N,P11-3*%
X222885000Y-85725000D03*
%TO.P,J11,2*%
%TO.N,P11-2*%
X220345000Y-85725000D03*
D16*
%TO.P,J11,1*%
%TO.N,P11-1*%
X217805000Y-85725000D03*
%TD*%
D15*
%TO.P,J10,9*%
%TO.N,P10-9*%
X213360000Y-93980000D03*
%TO.P,J10,8*%
%TO.N,P10-8*%
X210820000Y-93980000D03*
%TO.P,J10,7*%
%TO.N,P10-7*%
X208280000Y-93980000D03*
%TO.P,J10,6*%
%TO.N,P10-6*%
X205740000Y-93980000D03*
%TO.P,J10,5*%
%TO.N,P10-5*%
X203200000Y-93980000D03*
%TO.P,J10,4*%
%TO.N,P10-4*%
X200660000Y-93980000D03*
%TO.P,J10,3*%
%TO.N,P10-3*%
X198120000Y-93980000D03*
%TO.P,J10,2*%
%TO.N,P10-2*%
X195580000Y-93980000D03*
D16*
%TO.P,J10,1*%
%TO.N,P10-1*%
X193040000Y-93980000D03*
%TD*%
D15*
%TO.P,J9,3*%
%TO.N,P8-2*%
X190500000Y-67310000D03*
%TO.P,J9,2*%
%TO.N,P9-2*%
X187960000Y-67310000D03*
D16*
%TO.P,J9,1*%
%TO.N,P9-1*%
X185420000Y-67310000D03*
%TD*%
D15*
%TO.P,J8,3*%
%TO.N,P11-7*%
X184150000Y-93980000D03*
%TO.P,J8,2*%
%TO.N,P8-2*%
X181610000Y-93980000D03*
D16*
%TO.P,J8,1*%
%TO.N,P7-1*%
X179070000Y-93980000D03*
%TD*%
D15*
%TO.P,J7,6*%
%TO.N,P7-6*%
X172720000Y-85725000D03*
%TO.P,J7,5*%
%TO.N,P7-5*%
X170180000Y-85725000D03*
%TO.P,J7,4*%
%TO.N,P7-4*%
X167640000Y-85725000D03*
%TO.P,J7,3*%
%TO.N,P7-3*%
X165100000Y-85725000D03*
%TO.P,J7,2*%
%TO.N,P7-2*%
X162560000Y-85725000D03*
D16*
%TO.P,J7,1*%
%TO.N,P7-1*%
X160020000Y-85725000D03*
%TD*%
D15*
%TO.P,J6,4*%
%TO.N,P6-4*%
X148590000Y-86995000D03*
%TO.P,J6,3*%
%TO.N,P6-3*%
X146050000Y-86995000D03*
%TO.P,J6,2*%
%TO.N,P6-2*%
X143510000Y-86995000D03*
D16*
%TO.P,J6,1*%
%TO.N,P6-1*%
X140970000Y-86995000D03*
%TD*%
D15*
%TO.P,J5,8*%
%TO.N,P10-9*%
X134620000Y-85725000D03*
%TO.P,J5,7*%
%TO.N,P5-7*%
X132080000Y-85725000D03*
%TO.P,J5,6*%
%TO.N,P5-6*%
X129540000Y-85725000D03*
%TO.P,J5,5*%
%TO.N,P5-5*%
X127000000Y-85725000D03*
%TO.P,J5,4*%
%TO.N,P5-4*%
X124460000Y-85725000D03*
%TO.P,J5,3*%
%TO.N,P5-3*%
X121920000Y-85725000D03*
%TO.P,J5,2*%
%TO.N,P5-2*%
X119380000Y-85725000D03*
D16*
%TO.P,J5,1*%
%TO.N,P5-1*%
X116840000Y-85725000D03*
%TD*%
D15*
%TO.P,J4,2*%
%TO.N,P4-2*%
X106680000Y-97155000D03*
D16*
%TO.P,J4,1*%
%TO.N,P4-1*%
X106680000Y-94615000D03*
%TD*%
D15*
%TO.P,J3,2*%
%TO.N,P3-2*%
X106680000Y-90805000D03*
D16*
%TO.P,J3,1*%
%TO.N,P3-1*%
X106680000Y-88265000D03*
%TD*%
D15*
%TO.P,J2,6*%
%TO.N,P2-6*%
X102870000Y-85725000D03*
%TO.P,J2,5*%
%TO.N,P2-5*%
X100330000Y-85725000D03*
%TO.P,J2,4*%
%TO.N,P2-4*%
X97790000Y-85725000D03*
%TO.P,J2,3*%
%TO.N,P2-3*%
X95250000Y-85725000D03*
%TO.P,J2,2*%
%TO.N,P2-2*%
X92710000Y-85725000D03*
D16*
%TO.P,J2,1*%
%TO.N,P2-1*%
X90170000Y-85725000D03*
%TD*%
D15*
%TO.P,J1,7*%
%TO.N,P1-7*%
X81280000Y-85725000D03*
%TO.P,J1,6*%
%TO.N,P1-6*%
X78740000Y-85725000D03*
%TO.P,J1,5*%
%TO.N,P1-5*%
X76200000Y-85725000D03*
%TO.P,J1,4*%
%TO.N,P1-4*%
X73660000Y-85725000D03*
%TO.P,J1,3*%
%TO.N,P1-3*%
X71120000Y-85725000D03*
%TO.P,J1,2*%
%TO.N,P1-2*%
X68580000Y-85725000D03*
D16*
%TO.P,J1,1*%
%TO.N,P1-1*%
X66040000Y-85725000D03*
%TD*%
D17*
%TO.N,P10-9*%
X130810000Y-89535000D02*
X134620000Y-85725000D01*
X129540000Y-89535000D02*
X130810000Y-89535000D01*
X179705000Y-83185000D02*
X179705000Y-88900000D01*
X175260000Y-93345000D02*
X175260000Y-100330000D01*
X179705000Y-88900000D02*
X175260000Y-93345000D01*
%TO.N,P1-1*%
X66040000Y-85725000D02*
X66040000Y-88265000D01*
X132080000Y-76835000D02*
X141605000Y-76835000D01*
X143510000Y-78740000D02*
X143510000Y-81915000D01*
X141605000Y-76835000D02*
X143510000Y-78740000D01*
X118745000Y-95885000D02*
X118745000Y-97155000D01*
X122489990Y-95315010D02*
X119314990Y-95315010D01*
X123190000Y-94615000D02*
X122489990Y-95315010D01*
X123190000Y-90170000D02*
X123190000Y-94615000D01*
X121920000Y-88900000D02*
X123190000Y-90170000D01*
X119314990Y-95315010D02*
X118745000Y-95885000D01*
X114300000Y-88900000D02*
X121920000Y-88900000D01*
X112395000Y-86995000D02*
X114300000Y-88900000D01*
X112395000Y-83820000D02*
X112395000Y-86995000D01*
X117475000Y-78740000D02*
X112395000Y-83820000D01*
X126365000Y-78740000D02*
X117475000Y-78740000D01*
X128270000Y-76835000D02*
X126365000Y-78740000D01*
X132080000Y-70485000D02*
X132080000Y-76835000D01*
X132080000Y-76835000D02*
X128270000Y-76835000D01*
X149860000Y-71120000D02*
X153035000Y-74295000D01*
X141605000Y-71120000D02*
X149860000Y-71120000D01*
X136525000Y-66040000D02*
X141605000Y-71120000D01*
X133350000Y-66040000D02*
X136525000Y-66040000D01*
X132080000Y-67310000D02*
X133350000Y-66040000D01*
X132080000Y-70485000D02*
X132080000Y-67310000D01*
%TO.N,P1-2*%
X68580000Y-83185000D02*
X68580000Y-90170000D01*
%TO.N,P1-3*%
X71120000Y-80645000D02*
X71120000Y-88265000D01*
%TO.N,P1-4*%
X73660000Y-83185000D02*
X73660000Y-90170000D01*
%TO.N,P1-5*%
X76200000Y-88265000D02*
X76200000Y-85725000D01*
X77450001Y-84474999D02*
X76200000Y-85725000D01*
X77450001Y-78720001D02*
X77450001Y-84474999D01*
X76200000Y-77470000D02*
X77450001Y-78720001D01*
X76200000Y-67945000D02*
X76200000Y-77470000D01*
%TO.N,P1-6*%
X78740000Y-90170000D02*
X78740000Y-85725000D01*
X78740000Y-81915000D02*
X80010000Y-80645000D01*
X78740000Y-85725000D02*
X78740000Y-81915000D01*
%TO.N,P1-7*%
X81280000Y-85725000D02*
X81280000Y-88265000D01*
%TO.N,P2-1*%
X90170000Y-88265000D02*
X90170000Y-85725000D01*
%TO.N,P2-2*%
X92710000Y-85725000D02*
X92710000Y-90170000D01*
X91440000Y-83185000D02*
X92075000Y-83185000D01*
X92710000Y-83820000D02*
X92710000Y-85725000D01*
X92075000Y-83185000D02*
X92710000Y-83820000D01*
%TO.N,P2-3*%
X95250000Y-88265000D02*
X95250000Y-85725000D01*
X95250000Y-80645000D02*
X95250000Y-85725000D01*
%TO.N,P2-4*%
X97790000Y-83185000D02*
X97790000Y-85725000D01*
X97790000Y-85725000D02*
X97790000Y-90170000D01*
%TO.N,P2-5*%
X100330000Y-80645000D02*
X100330000Y-88265000D01*
%TO.N,P2-6*%
X102870000Y-85725000D02*
X102870000Y-90170000D01*
X148590000Y-81915000D02*
X148590000Y-74295000D01*
X148590000Y-74295000D02*
X146685000Y-72390000D01*
X139065000Y-72390000D02*
X137160000Y-70485000D01*
X146685000Y-72390000D02*
X139065000Y-72390000D01*
X123190000Y-67945000D02*
X123190000Y-76835000D01*
X123190000Y-76835000D02*
X122555000Y-77470000D01*
X122555000Y-77470000D02*
X113030000Y-77470000D01*
X113030000Y-77470000D02*
X107315000Y-83185000D01*
X107315000Y-83185000D02*
X104140000Y-83185000D01*
X102870000Y-84455000D02*
X102870000Y-85725000D01*
X104140000Y-83185000D02*
X102870000Y-84455000D01*
%TO.N,P7-1*%
X160020000Y-83185000D02*
X160020000Y-90170000D01*
%TO.N,P7-2*%
X162560000Y-81915000D02*
X162560000Y-88265000D01*
%TO.N,P7-3*%
X165100000Y-90170000D02*
X165100000Y-83185000D01*
%TO.N,P7-4*%
X167640000Y-81915000D02*
X167640000Y-88265000D01*
%TO.N,P7-5*%
X170180000Y-83185000D02*
X170180000Y-90170000D01*
%TO.N,P7-6*%
X172720000Y-88265000D02*
X172720000Y-81915000D01*
%TO.N,P8-2*%
X190500000Y-78740000D02*
X190500000Y-67310000D01*
X181610000Y-91440000D02*
X181610000Y-93980000D01*
X182245000Y-90805000D02*
X181610000Y-91440000D01*
X187325000Y-90805000D02*
X182245000Y-90805000D01*
X190500000Y-87630000D02*
X187325000Y-90805000D01*
X190500000Y-78740000D02*
X190500000Y-87630000D01*
%TO.N,P9-1*%
X185420000Y-67310000D02*
X185420000Y-70485000D01*
%TO.N,P9-2*%
X187960000Y-67310000D02*
X187960000Y-73025000D01*
%TO.N,P11-1*%
X217805000Y-83185000D02*
X217805000Y-90170000D01*
%TO.N,P11-2*%
X220345000Y-88265000D02*
X220345000Y-80645000D01*
%TO.N,P11-3*%
X222885000Y-83185000D02*
X222885000Y-90170000D01*
%TO.N,P11-4*%
X225425000Y-88265000D02*
X225425000Y-80645000D01*
%TO.N,P11-5*%
X227965000Y-83185000D02*
X227965000Y-90170000D01*
%TO.N,P11-6*%
X230505000Y-88265000D02*
X230505000Y-80645000D01*
%TO.N,P11-7*%
X233045000Y-83185000D02*
X233045000Y-90170000D01*
X186055000Y-95885000D02*
X184150000Y-93980000D01*
X232410000Y-95885000D02*
X186055000Y-95885000D01*
X233045000Y-95250000D02*
X232410000Y-95885000D01*
X233045000Y-90170000D02*
X233045000Y-95250000D01*
%TO.N,P11-8*%
X235585000Y-88265000D02*
X235585000Y-80645000D01*
%TO.N,P3-2*%
X127635000Y-104140000D02*
X129540000Y-102235000D01*
X106045000Y-104140000D02*
X127635000Y-104140000D01*
X104775000Y-99695000D02*
X104775000Y-102870000D01*
X104775000Y-102870000D02*
X106045000Y-104140000D01*
X104140000Y-99060000D02*
X104775000Y-99695000D01*
X104140000Y-93345000D02*
X104140000Y-99060000D01*
X106680000Y-90805000D02*
X104140000Y-93345000D01*
X134620000Y-102235000D02*
X129540000Y-102235000D01*
%TO.N,P3-1*%
X106680000Y-88265000D02*
X107315000Y-88265000D01*
X107315000Y-88265000D02*
X109220000Y-90170000D01*
X109220000Y-90170000D02*
X109220000Y-99060000D01*
X125095000Y-102870000D02*
X125730000Y-102235000D01*
X108585000Y-102870000D02*
X125095000Y-102870000D01*
X107950000Y-100330000D02*
X107950000Y-102235000D01*
X107950000Y-102235000D02*
X108585000Y-102870000D01*
X109220000Y-99060000D02*
X107950000Y-100330000D01*
X125730000Y-102235000D02*
X127635000Y-100330000D01*
X137160000Y-100330000D02*
X138430000Y-101600000D01*
X127635000Y-100330000D02*
X137160000Y-100330000D01*
%TO.N,P5-7*%
X146050000Y-99695000D02*
X146050000Y-92075000D01*
%TO.N,P5-6*%
X146050000Y-66675000D02*
X143510000Y-69215000D01*
X140970000Y-66675000D02*
X143510000Y-69215000D01*
X146050000Y-66675000D02*
X148590000Y-69215000D01*
%TO.N,P5-5*%
X129540000Y-83185000D02*
X127000000Y-85725000D01*
%TO.N,P5-4*%
X73660000Y-70485000D02*
X73660000Y-76835000D01*
X76200000Y-79375000D02*
X76200000Y-83185000D01*
X73660000Y-76835000D02*
X76200000Y-79375000D01*
%TO.N,P5-3*%
X80010000Y-67945000D02*
X80010000Y-69850000D01*
X80010000Y-69850000D02*
X83185000Y-73025000D01*
X85090000Y-73025000D02*
X87630000Y-75565000D01*
X83185000Y-73025000D02*
X85090000Y-73025000D01*
%TO.N,P5-1*%
X97790000Y-70485000D02*
X100330000Y-67945000D01*
X97790000Y-70485000D02*
X97790000Y-73025000D01*
X97790000Y-73025000D02*
X100330000Y-75565000D01*
X100330000Y-75565000D02*
X104775000Y-75565000D01*
X106680000Y-77470000D02*
X106680000Y-80645000D01*
X104775000Y-75565000D02*
X106680000Y-77470000D01*
X110490000Y-83185000D02*
X110490000Y-85725000D01*
%TO.N,P6-4*%
X148590000Y-86995000D02*
X148590000Y-85725000D01*
X148590000Y-85725000D02*
X146050000Y-83185000D01*
X146050000Y-83185000D02*
X146050000Y-81915000D01*
%TO.N,P6-3*%
X151765000Y-75565000D02*
X151765000Y-87630000D01*
X151765000Y-87630000D02*
X150495000Y-88900000D01*
X150495000Y-88900000D02*
X146685000Y-88900000D01*
X146050000Y-88265000D02*
X146050000Y-86995000D01*
X146685000Y-88900000D02*
X146050000Y-88265000D01*
%TO.N,P6-2*%
X140970000Y-83185000D02*
X140970000Y-81915000D01*
X143510000Y-85725000D02*
X140970000Y-83185000D01*
X143510000Y-86995000D02*
X143510000Y-85725000D01*
X118110000Y-67945000D02*
X113030000Y-67945000D01*
X113030000Y-67945000D02*
X106680000Y-67945000D01*
%TO.N,P10-8*%
X210820000Y-91440000D02*
X210820000Y-93980000D01*
X213360000Y-88900000D02*
X210820000Y-91440000D01*
%TO.N,P10-7*%
X208280000Y-88265000D02*
X208280000Y-93980000D01*
X227965000Y-73025000D02*
X227965000Y-70485000D01*
X222885000Y-78105000D02*
X227965000Y-73025000D01*
X218440000Y-78105000D02*
X222885000Y-78105000D01*
X208280000Y-88265000D02*
X218440000Y-78105000D01*
X227965000Y-70485000D02*
X230505000Y-67945000D01*
%TO.N,P10-6*%
X215900000Y-76835000D02*
X220345000Y-76835000D01*
X220345000Y-76835000D02*
X222885000Y-74295000D01*
X205740000Y-86995000D02*
X215900000Y-76835000D01*
X222885000Y-74295000D02*
X222885000Y-67945000D01*
X205740000Y-93980000D02*
X205740000Y-86995000D01*
%TO.N,P10-5*%
X203200000Y-86995000D02*
X203200000Y-93980000D01*
%TO.N,P10-3*%
X196850000Y-86995000D02*
X196850000Y-90170000D01*
X198120000Y-91440000D02*
X198120000Y-93980000D01*
X196850000Y-90170000D02*
X198120000Y-91440000D01*
X220345000Y-67945000D02*
X217805000Y-70485000D01*
X196850000Y-86995000D02*
X196850000Y-85090000D01*
X196850000Y-85090000D02*
X198755000Y-83185000D01*
X198755000Y-67945000D02*
X195580000Y-64770000D01*
X217805000Y-70485000D02*
X207645000Y-70485000D01*
X206375000Y-71755000D02*
X198755000Y-71755000D01*
X207645000Y-70485000D02*
X206375000Y-71755000D01*
X198755000Y-71755000D02*
X198755000Y-67945000D01*
X198755000Y-83185000D02*
X198755000Y-71755000D01*
X166370000Y-64770000D02*
X165100000Y-66040000D01*
X195580000Y-64770000D02*
X166370000Y-64770000D01*
X165100000Y-66040000D02*
X165100000Y-69215000D01*
X162560000Y-69215000D02*
X165100000Y-69215000D01*
X165100000Y-69215000D02*
X165100000Y-70485000D01*
%TO.N,P10-2*%
X193040000Y-88265000D02*
X195580000Y-90805000D01*
X195580000Y-90805000D02*
X195580000Y-93980000D01*
X193040000Y-88265000D02*
X193040000Y-84455000D01*
X196850000Y-80645000D02*
X196850000Y-74295000D01*
X193040000Y-84455000D02*
X196850000Y-80645000D01*
%TO.N,Net-(Q1-Pad1)*%
X121285000Y-93345000D02*
X121285000Y-90805000D01*
X120650000Y-93980000D02*
X121285000Y-93345000D01*
X112395000Y-93980000D02*
X120650000Y-93980000D01*
X110490000Y-95885000D02*
X112395000Y-93980000D01*
X110490000Y-100965000D02*
X110490000Y-95885000D01*
%TO.N,Net-(Q2-Pad1)*%
X114300000Y-100965000D02*
X121285000Y-100965000D01*
X121285000Y-100965000D02*
X121920000Y-100330000D01*
X121920000Y-100330000D02*
X121920000Y-97790000D01*
X121920000Y-97790000D02*
X121285000Y-97155000D01*
%TO.N,Net-(Q3-Pad1)*%
X153035000Y-70485000D02*
X154305000Y-70485000D01*
X156210000Y-72390000D02*
X156210000Y-85725000D01*
X154305000Y-70485000D02*
X156210000Y-72390000D01*
X158115000Y-92710000D02*
X156210000Y-90805000D01*
X156210000Y-90805000D02*
X156210000Y-85725000D01*
X151765000Y-103505000D02*
X154940000Y-103505000D01*
X148590000Y-100330000D02*
X151765000Y-103505000D01*
X158115000Y-100330000D02*
X158115000Y-92710000D01*
X154940000Y-103505000D02*
X158115000Y-100330000D01*
X148590000Y-99695000D02*
X148590000Y-100330000D01*
%TO.N,Net-(Q4-Pad1)*%
X150495000Y-92075000D02*
X153670000Y-88900000D01*
X148590000Y-92075000D02*
X150495000Y-92075000D01*
X153035000Y-76835000D02*
X153035000Y-85725000D01*
X153670000Y-86360000D02*
X153670000Y-88900000D01*
X153035000Y-85725000D02*
X153670000Y-86360000D01*
%TO.N,Net-(Q5-Pad2)*%
X147320000Y-102235000D02*
X147320000Y-100965000D01*
X146685000Y-102870000D02*
X147320000Y-102235000D01*
X144145000Y-102870000D02*
X146685000Y-102870000D01*
X142875000Y-95885000D02*
X142875000Y-101600000D01*
X138430000Y-91440000D02*
X142875000Y-95885000D01*
X142875000Y-101600000D02*
X144145000Y-102870000D01*
X138430000Y-88900000D02*
X138430000Y-91440000D01*
%TD*%
M02*
