M48
; DRILL file {KiCad (5.1.8)-1} date 12/25/20 14:24:48
; FORMAT={-:-/ absolute / metric / decimal}
; #@! TF.CreationDate,2020-12-25T14:24:48+01:00
; #@! TF.GenerationSoftware,Kicad,Pcbnew,(5.1.8)-1
; #@! TF.FileFunction,Plated,1,2,PTH
FMAT,2
METRIC
T1C0.750
T2C0.800
T3C1.000
%
G90
G05
T1
X151.765Y-69.215
X153.035Y-67.945
X153.035Y-70.485
X146.05Y-92.075
X147.32Y-93.345
X148.59Y-92.075
X146.05Y-99.695
X147.32Y-100.965
X148.59Y-99.695
X151.765Y-75.565
X153.035Y-74.295
X153.035Y-76.835
X118.745Y-90.805
X120.015Y-92.075
X121.285Y-90.805
X118.745Y-97.155
X120.015Y-98.425
X121.285Y-97.155
T2
X78.74Y-90.17
X78.74Y-100.33
X71.12Y-88.265
X71.12Y-98.425
X162.56Y-69.215
X162.56Y-81.915
X129.54Y-67.945
X129.54Y-83.185
X160.02Y-70.485
X160.02Y-83.185
X118.11Y-67.945
X118.11Y-80.645
X97.79Y-70.485
X97.79Y-83.185
X220.345Y-88.265
X220.345Y-98.425
X125.73Y-70.485
X125.73Y-83.185
X235.585Y-88.265
X235.585Y-98.425
X187.96Y-73.025
X187.96Y-85.725
X230.505Y-88.265
X230.505Y-98.425
X210.82Y-78.74
X210.82Y-91.44
X172.72Y-69.215
X172.72Y-81.915
X102.87Y-90.17
X102.87Y-100.33
X95.25Y-88.265
X95.25Y-98.425
X66.04Y-88.265
X66.04Y-98.425
X167.64Y-66.675
X167.64Y-81.915
X138.43Y-88.9
X138.43Y-101.6
X140.97Y-66.675
X140.97Y-81.915
X125.73Y-89.535
X125.73Y-102.235
X110.49Y-70.485
X110.49Y-83.185
X222.885Y-90.17
X222.885Y-100.33
X113.03Y-67.945
X113.03Y-80.645
X71.12Y-67.945
X71.12Y-80.645
X233.045Y-70.485
X233.045Y-83.185
X167.64Y-88.265
X167.64Y-98.425
X213.36Y-73.66
X213.36Y-88.9
X227.965Y-70.485
X227.965Y-83.185
X97.79Y-90.17
X97.79Y-100.33
X81.28Y-88.265
X81.28Y-98.425
X129.54Y-89.535
X129.54Y-102.235
X165.1Y-70.485
X165.1Y-83.185
X156.21Y-85.725
X156.21Y-98.425
X76.2Y-67.945
X76.2Y-83.185
X100.33Y-67.945
X100.33Y-80.645
X225.425Y-88.265
X225.425Y-98.425
X217.805Y-90.17
X217.805Y-100.33
X193.04Y-73.025
X193.04Y-88.265
X222.885Y-67.945
X222.885Y-83.185
X190.5Y-78.74
X190.5Y-91.44
X76.2Y-88.265
X76.2Y-98.425
X68.58Y-90.17
X68.58Y-100.33
X100.33Y-88.265
X100.33Y-98.425
X153.67Y-88.9
X153.67Y-101.6
X134.62Y-89.535
X134.62Y-102.235
X143.51Y-69.215
X143.51Y-81.915
X80.01Y-67.945
X80.01Y-80.645
X110.49Y-85.725
X110.49Y-100.965
X175.26Y-90.17
X175.26Y-100.33
X73.66Y-70.485
X73.66Y-83.185
X217.805Y-70.485
X217.805Y-83.185
X235.585Y-67.945
X235.585Y-80.645
X185.42Y-70.485
X185.42Y-83.185
X200.66Y-77.47
X200.66Y-90.17
X162.56Y-88.265
X162.56Y-98.425
X73.66Y-90.17
X73.66Y-100.33
X160.02Y-90.17
X160.02Y-100.33
X132.08Y-70.485
X132.08Y-83.185
X134.62Y-67.945
X134.62Y-83.185
X87.63Y-75.565
X87.63Y-88.265
X120.65Y-70.485
X120.65Y-83.185
X170.18Y-90.17
X170.18Y-100.33
X68.58Y-70.485
X68.58Y-83.185
X220.345Y-67.945
X220.345Y-80.645
X225.425Y-67.945
X225.425Y-80.645
X91.44Y-67.945
X91.44Y-83.185
X90.17Y-88.265
X90.17Y-98.425
X137.16Y-70.485
X137.16Y-83.185
X170.18Y-70.485
X170.18Y-83.185
X83.82Y-75.565
X83.82Y-88.265
X106.68Y-67.945
X106.68Y-80.645
X172.72Y-88.265
X172.72Y-98.425
X123.19Y-67.945
X123.19Y-80.645
X177.165Y-71.755
X177.165Y-81.915
X227.965Y-90.17
X227.965Y-100.33
X196.85Y-74.295
X196.85Y-86.995
X230.505Y-67.945
X230.505Y-80.645
X92.71Y-90.17
X92.71Y-100.33
X148.59Y-69.215
X148.59Y-81.915
X146.05Y-66.675
X146.05Y-81.915
X114.3Y-85.725
X114.3Y-100.965
X95.25Y-67.945
X95.25Y-80.645
X233.045Y-90.17
X233.045Y-100.33
X115.57Y-70.485
X115.57Y-83.185
X179.705Y-73.025
X179.705Y-83.185
X165.1Y-90.17
X165.1Y-100.33
X203.2Y-74.295
X203.2Y-86.995
X208.28Y-73.025
X208.28Y-88.265
T3
X160.02Y-85.725
X162.56Y-85.725
X165.1Y-85.725
X167.64Y-85.725
X170.18Y-85.725
X172.72Y-85.725
X179.07Y-93.98
X181.61Y-93.98
X184.15Y-93.98
X90.17Y-85.725
X92.71Y-85.725
X95.25Y-85.725
X97.79Y-85.725
X100.33Y-85.725
X102.87Y-85.725
X185.42Y-67.31
X187.96Y-67.31
X190.5Y-67.31
X66.04Y-85.725
X68.58Y-85.725
X71.12Y-85.725
X73.66Y-85.725
X76.2Y-85.725
X78.74Y-85.725
X81.28Y-85.725
X193.04Y-93.98
X195.58Y-93.98
X198.12Y-93.98
X200.66Y-93.98
X203.2Y-93.98
X205.74Y-93.98
X208.28Y-93.98
X210.82Y-93.98
X213.36Y-93.98
X106.68Y-88.265
X106.68Y-90.805
X116.84Y-85.725
X119.38Y-85.725
X121.92Y-85.725
X124.46Y-85.725
X127.0Y-85.725
X129.54Y-85.725
X132.08Y-85.725
X134.62Y-85.725
X217.805Y-85.725
X220.345Y-85.725
X222.885Y-85.725
X225.425Y-85.725
X227.965Y-85.725
X230.505Y-85.725
X233.045Y-85.725
X235.585Y-85.725
X106.68Y-94.615
X106.68Y-97.155
X140.97Y-86.995
X143.51Y-86.995
X146.05Y-86.995
X148.59Y-86.995
T0
M30
